<mxfile host="app.diagrams.net" modified="2024-01-14T16:52:49.384Z" agent="Mozilla/5.0 (Windows NT 10.0; Win64; x64; rv:121.0) Gecko/20100101 Firefox/121.0" etag="2vkJfpu9w7oA9-3Yzp2T" version="22.1.18" type="device">
  <diagram name="Pagina-1" id="acRSWo48Pzw1rqXUfdUc">
    <mxGraphModel dx="1674" dy="856" grid="1" gridSize="10" guides="1" tooltips="1" connect="1" arrows="1" fold="1" page="1" pageScale="1" pageWidth="827" pageHeight="1169" math="0" shadow="0">
      <root>
        <mxCell id="0" />
        <mxCell id="1" parent="0" />
        <mxCell id="yytKiWA_BTO1nHYbXArB-21" style="edgeStyle=orthogonalEdgeStyle;rounded=0;orthogonalLoop=1;jettySize=auto;html=1;" parent="1" source="yytKiWA_BTO1nHYbXArB-2" target="yytKiWA_BTO1nHYbXArB-19" edge="1">
          <mxGeometry relative="1" as="geometry" />
        </mxCell>
        <mxCell id="yytKiWA_BTO1nHYbXArB-22" value="t2_A_B" style="edgeLabel;html=1;align=center;verticalAlign=middle;resizable=0;points=[];" parent="yytKiWA_BTO1nHYbXArB-21" vertex="1" connectable="0">
          <mxGeometry x="0.075" y="-1" relative="1" as="geometry">
            <mxPoint x="-3" y="-11" as="offset" />
          </mxGeometry>
        </mxCell>
        <mxCell id="yytKiWA_BTO1nHYbXArB-2" value="q0" style="ellipse;whiteSpace=wrap;html=1;aspect=fixed;" parent="1" vertex="1">
          <mxGeometry x="160" y="280" width="40" height="40" as="geometry" />
        </mxCell>
        <mxCell id="yytKiWA_BTO1nHYbXArB-19" value="q1" style="ellipse;whiteSpace=wrap;html=1;aspect=fixed;" parent="1" vertex="1">
          <mxGeometry x="280" y="280" width="40" height="40" as="geometry" />
        </mxCell>
        <mxCell id="yytKiWA_BTO1nHYbXArB-24" style="edgeStyle=orthogonalEdgeStyle;rounded=0;orthogonalLoop=1;jettySize=auto;html=1;" parent="1" source="yytKiWA_BTO1nHYbXArB-2" target="yytKiWA_BTO1nHYbXArB-2" edge="1">
          <mxGeometry relative="1" as="geometry">
            <mxPoint x="185" y="300" as="sourcePoint" />
            <mxPoint x="175" y="282.67949192431115" as="targetPoint" />
            <Array as="points">
              <mxPoint x="190" y="240" />
              <mxPoint x="170" y="240" />
            </Array>
          </mxGeometry>
        </mxCell>
        <mxCell id="yytKiWA_BTO1nHYbXArB-25" value="e" style="edgeLabel;html=1;align=center;verticalAlign=middle;resizable=0;points=[];" parent="yytKiWA_BTO1nHYbXArB-24" vertex="1" connectable="0">
          <mxGeometry x="-0.1139" y="1" relative="1" as="geometry">
            <mxPoint x="-6" y="-11" as="offset" />
          </mxGeometry>
        </mxCell>
      </root>
    </mxGraphModel>
  </diagram>
</mxfile>
